<svg width="31" height="32" viewBox="0 0 31 32" fill="none" xmlns="http://www.w3.org/2000/svg">
<path fill-rule="evenodd" clip-rule="evenodd" d="M16.7282 2.00745C16.7282 1.73802 16.7282 0 18.1476 0C19.5669 0 30.2667 3.39453 30.2667 14.9125C30.2667 26.4304 23.229 30.9394 21.1 31.5456C18.971 32.1518 16.7282 32.5331 16.7282 30.1083V2.00745ZM27.6848 21.8724C27.8047 21.58 27.6687 21.2442 27.3811 21.1223C27.0935 21.0005 26.7632 21.1388 26.6434 21.4312C26.4164 21.9852 26.0038 22.8803 25.5123 23.745C25.01 24.6287 24.4663 25.4059 23.9912 25.7923C23.7479 25.9902 23.7085 26.3511 23.9031 26.5985C24.0977 26.8459 24.4527 26.886 24.696 26.6881C25.3491 26.1568 25.9807 25.2134 26.4891 24.319C27.0082 23.4057 27.4418 22.4654 27.6848 21.8724ZM23.8484 4.74397C23.9976 4.46588 24.3402 4.36341 24.6137 4.5151C26.0013 5.28461 26.5992 6.45732 26.7276 7.04503C26.7952 7.35426 26.6034 7.66064 26.2993 7.72935C25.9952 7.79807 25.6939 7.6031 25.6263 7.29388C25.5667 7.02126 25.168 6.12916 24.0735 5.52214C23.8 5.37046 23.6992 5.02206 23.8484 4.74397ZM24.3436 13.9087C24.3436 13.592 24.091 13.3352 23.7795 13.3352C23.468 13.3352 23.2154 13.592 23.2154 13.9087L23.2154 13.9532C23.2149 14.3899 23.214 15.2191 23.5835 15.8924C23.7876 16.2642 24.1047 16.5931 24.5751 16.7875C25.0354 16.9777 25.5963 17.0202 26.2649 16.9129C26.8782 16.8144 27.2599 16.8698 27.4872 16.9706C27.6905 17.0608 27.8102 17.2037 27.8792 17.4198C27.9555 17.6583 27.9703 17.9961 27.9007 18.4323C27.8322 18.8625 27.688 19.3493 27.4865 19.8615C27.3708 20.1556 27.5115 20.4894 27.8008 20.607C28.09 20.7247 28.4183 20.5816 28.534 20.2875C28.7556 19.7242 28.9287 19.1535 29.0144 18.6158C29.0992 18.0842 29.1051 17.5437 28.9522 17.0653C28.7921 16.5644 28.4623 16.1517 27.9384 15.9192C27.4386 15.6975 26.8154 15.6632 26.089 15.7798C25.5547 15.8656 25.2146 15.8135 24.9998 15.7248C24.7952 15.6402 24.6633 15.5058 24.5687 15.3334C24.3539 14.9421 24.3436 14.3941 24.3436 13.9087ZM19.4077 15.0559C19.7193 15.0559 19.9718 15.3126 19.9718 15.6294V17.3669L19.9708 17.3838C19.9598 17.5744 20.0338 17.7867 20.3134 17.9347C20.6268 18.1006 21.2564 18.2111 22.3796 17.9392C23.2337 17.7325 23.9668 17.8337 24.5409 18.1933C25.108 18.5485 25.4488 19.1113 25.6107 19.6934C25.772 20.2732 25.7668 20.9055 25.6137 21.4632C25.4621 22.0152 25.1463 22.5566 24.6278 22.8641C24.0696 23.1952 23.438 23.2577 22.8476 23.2223C22.2587 23.1871 21.6478 23.0495 21.1057 22.9249L21.05 22.9121C20.5088 22.7876 20.0471 22.6815 19.6535 22.655C19.2406 22.6273 19.0427 22.6994 18.9403 22.7937C18.7689 22.9517 18.6672 23.1764 18.613 23.4674C18.561 23.7468 18.5613 24.0338 18.5615 24.3179L18.5616 24.3762C18.5615 25.0159 18.7354 26.5245 20.353 27.2985C20.4098 27.3257 20.4601 27.3613 20.5031 27.4031L21.3392 26.6391L20.5034 27.4034C20.6734 27.5692 20.7291 27.833 20.6232 28.0617C20.4906 28.3483 20.1545 28.4713 19.8726 28.3364C19.7865 28.2952 19.7034 28.2525 19.6232 28.2082L18.7949 28.9657L18.8005 28.9706C18.8068 28.976 18.8176 28.9852 18.8326 28.9975C18.8626 29.0222 18.9092 29.0592 18.9701 29.1038C19.0927 29.1934 19.2696 29.3106 19.4837 29.4195C19.9219 29.6422 20.4576 29.8008 20.9894 29.6927C22.0801 29.4709 22.6403 28.4828 22.2738 27.6133C22.11 27.2245 21.8665 26.9781 21.6655 26.8282C21.5645 26.7529 21.4753 26.7029 21.4149 26.6729C21.3848 26.658 21.3623 26.6484 21.3497 26.6432L21.3439 26.6408L21.3392 26.6391C21.0472 26.5367 20.89 26.2141 20.9879 25.9154C21.0865 25.6149 21.4059 25.4525 21.7015 25.5527L21.5231 26.0968C21.7015 25.5527 21.7017 25.5528 21.702 25.5529L21.7025 25.553L21.7035 25.5534L21.7059 25.5542L21.7116 25.5562C21.7158 25.5577 21.7208 25.5595 21.7266 25.5617C21.7383 25.566 21.7531 25.5717 21.7708 25.579C21.8062 25.5934 21.8531 25.614 21.909 25.6417C22.0204 25.6969 22.1692 25.7813 22.3326 25.9031C22.6604 26.1476 23.0516 26.5464 23.3108 27.1614C24.029 28.8653 22.8202 30.4902 21.2106 30.8175C20.3321 30.9962 19.5282 30.7246 18.9791 30.4455C18.6997 30.3034 18.4711 30.1518 18.3116 30.0353C18.2316 29.9767 18.168 29.9264 18.1231 29.8894C18.1006 29.871 18.0827 29.8558 18.0698 29.8446C18.0633 29.839 18.058 29.8344 18.054 29.8308L18.0489 29.8263L18.0464 29.824L18.046 29.8237C18.0459 29.8236 18.0457 29.8234 18.4205 29.3948L18.0457 29.8234C17.8129 29.613 17.7919 29.2505 17.9989 29.0137C18.2055 28.7774 18.5612 28.7557 18.794 28.9649L19.6225 28.2079C17.6374 27.1131 17.4333 25.1394 17.4333 24.3761C17.4333 24.3541 17.4333 24.3309 17.4332 24.3068C17.4326 24.0362 17.4317 23.6454 17.5045 23.254C17.5853 22.8202 17.7656 22.328 18.1828 21.9437C18.6299 21.5318 19.2179 21.4762 19.7278 21.5104C20.213 21.543 20.7548 21.6678 21.2597 21.7842L21.3544 21.806C21.9089 21.9334 22.4317 22.0484 22.9139 22.0772C23.3946 22.106 23.7715 22.044 24.0594 21.8733C24.2481 21.7613 24.4269 21.5194 24.527 21.1549C24.6255 20.796 24.6288 20.3785 24.5251 20.0056C24.4221 19.6351 24.2245 19.3425 23.9492 19.17C23.6809 19.002 23.2677 18.9034 22.6409 19.0552C21.3949 19.3568 20.4497 19.3001 19.7924 18.9522C19.1081 18.59 18.8144 17.9511 18.8436 17.3349V15.6294C18.8436 15.3126 19.0962 15.0559 19.4077 15.0559ZM26.0092 10.7873C26.2135 11.0264 26.5698 11.0519 26.805 10.8441C27.0402 10.6364 27.0652 10.2741 26.8608 10.035L25.7607 8.74752C25.3853 8.26291 24.7515 7.97647 24.0013 8.15936C23.2807 8.33504 22.5306 8.92248 21.7845 9.98111C21.4093 10.5136 21.0337 10.7147 20.7229 10.7668C20.4038 10.8202 20.0659 10.731 19.7491 10.5201C19.4303 10.3077 19.1635 9.9903 19.0064 9.65373C18.8468 9.3118 18.8257 9.00998 18.896 8.79959C19.0217 8.42317 19.1548 8.33343 19.2212 8.30188C19.319 8.25541 19.464 8.24257 19.753 8.27111C19.8011 8.27587 19.8549 8.2826 19.9133 8.28992C20.4258 8.35412 21.3006 8.46371 21.9527 7.68453C22.5316 6.99281 22.341 6.1703 22.0912 5.62126C21.8347 5.05755 21.4309 4.57458 21.2438 4.35568C21.0395 4.11655 20.6832 4.09111 20.448 4.29886C20.2128 4.50661 20.1878 4.86888 20.3921 5.108C20.575 5.32207 20.8837 5.69944 21.0673 6.1029C21.2575 6.52104 21.2346 6.77254 21.0935 6.94115C20.8513 7.23058 20.6097 7.20581 20.0246 7.14582C19.9732 7.14055 19.919 7.135 19.8621 7.12937C19.5632 7.09985 19.1429 7.07291 18.7436 7.26263C18.3129 7.46727 18.017 7.864 17.8277 8.43068C17.6347 9.00852 17.7455 9.62783 17.9872 10.1456C18.2313 10.6687 18.6353 11.1495 19.1309 11.4796C19.6287 11.8112 20.249 12.0087 20.9062 11.8986C21.5715 11.7873 22.1903 11.3748 22.7016 10.6493C23.3741 9.69503 23.9207 9.35863 24.2643 9.27486C24.5708 9.20015 24.7636 9.31105 24.8783 9.46232L24.8884 9.47567L26.0092 10.7873ZM19.2015 5.18107C19.3447 5.45667 19.245 5.79928 18.9755 5.95074C18.7028 6.104 18.3596 6.00351 18.2089 5.72628L18.7026 5.44879C18.2089 5.72628 18.2088 5.72605 18.2086 5.72582L18.2084 5.72534L18.2078 5.72435L18.2067 5.72224L18.2042 5.71747C18.2024 5.71406 18.2004 5.71016 18.1982 5.70577C18.1937 5.69701 18.1885 5.68633 18.1826 5.67374C18.1708 5.64857 18.1565 5.61576 18.1408 5.57548C18.1094 5.49491 18.0727 5.3844 18.0409 5.24537C17.9772 4.96632 17.9343 4.57631 17.9918 4.08875C18.1008 3.16242 18.7794 2.36142 19.5292 1.91034C20.2718 1.4636 21.3033 1.23893 22.1279 1.82383C22.6248 2.17626 22.8496 2.72393 22.9552 3.10915C23.0104 3.31054 23.0397 3.49206 23.0554 3.62351C23.0633 3.68972 23.0679 3.74452 23.0706 3.78435C23.0719 3.8043 23.0728 3.8206 23.0733 3.8328C23.0736 3.8389 23.0738 3.84399 23.0739 3.84802L23.0741 3.85324L23.0741 3.85525L23.0742 3.85648C23.0742 3.85666 23.0742 3.85684 22.5103 3.87151L23.0742 3.85684C23.0822 4.1735 22.8361 4.43677 22.5247 4.44487C22.214 4.45296 21.9556 4.20407 21.9464 3.88852L21.9463 3.88534C21.9461 3.88125 21.9457 3.87351 21.945 3.86253C21.9435 3.84052 21.9406 3.80588 21.9354 3.76177C21.9247 3.67256 21.9048 3.54988 21.8684 3.41702C21.7907 3.13374 21.6631 2.89278 21.4824 2.76463C21.1778 2.54855 20.6645 2.56024 20.1037 2.8976C19.5501 3.23063 19.1666 3.76148 19.112 4.22513C19.0712 4.57157 19.1037 4.82749 19.1399 4.98586C19.1581 5.06554 19.1774 5.12161 19.1897 5.15295C19.1957 5.16837 19.1999 5.17779 19.2015 5.18107ZM17.7154 15.3426L17.1515 15.3565C17.159 15.6732 17.4176 15.9237 17.7291 15.916C18.0392 15.9084 18.2848 15.6477 18.2794 15.3328C18.2794 15.3312 18.2794 15.3267 18.2796 15.3197C18.2799 15.3058 18.2809 15.2818 18.2835 15.25C18.2888 15.1856 18.3006 15.0921 18.3265 14.984C18.3792 14.7636 18.4828 14.5132 18.6784 14.3143C19.3289 13.6528 20.3694 13.6846 20.845 14.4906C20.9549 14.6769 20.9776 14.9771 20.9297 15.3161C20.9076 15.4723 20.8741 15.6119 20.846 15.7124C20.832 15.7622 20.8197 15.8012 20.8114 15.8265C20.8072 15.8391 20.8041 15.8482 20.8022 15.8534L20.801 15.8569L21.3005 16.0487C20.801 15.8569 20.801 15.857 20.8009 15.8571L20.8005 15.8582C20.6914 16.1542 20.8383 16.4843 21.1293 16.5961C21.4208 16.7081 21.7463 16.5586 21.8564 16.2623L21.3287 16.0596C21.8564 16.2623 21.8565 16.2621 21.8565 16.262L21.8566 16.2617L21.8569 16.2609L21.8575 16.2592L21.8593 16.2544L21.8645 16.2397C21.8687 16.2278 21.8743 16.2117 21.8809 16.1916C21.8941 16.1515 21.9117 16.0955 21.931 16.0268C21.9692 15.8903 22.0154 15.6989 22.0465 15.4792C22.1048 15.0662 22.1275 14.4343 21.8124 13.9004C20.8713 12.3055 18.9224 12.444 17.8806 13.5032C17.4921 13.8982 17.3135 14.3648 17.2303 14.7128C17.1881 14.889 17.1685 15.0425 17.1593 15.1543C17.1546 15.2104 17.1526 15.2568 17.1517 15.2911C17.1513 15.3082 17.1512 15.3225 17.1512 15.3334C17.1512 15.3389 17.1512 15.3436 17.1513 15.3475L17.1514 15.3527L17.1514 15.3548L17.1514 15.3557L17.1514 15.3561C17.1515 15.3563 17.1515 15.3565 17.7154 15.3426ZM28.0331 8.53878C27.8422 8.2884 27.4879 8.24273 27.2416 8.43678C26.9954 8.63079 26.9505 8.99098 27.1412 9.24135L27.1423 9.24275L27.1482 9.25064C27.1537 9.25804 27.1623 9.26963 27.1736 9.28505C27.1961 9.3159 27.2292 9.36191 27.2694 9.42006C27.3503 9.53685 27.4585 9.70026 27.5682 9.8868C27.803 10.286 27.9874 10.6967 28.0127 10.9747C28.1088 12.0338 27.0582 12.7479 26.0985 12.3701C25.8572 12.2752 25.5822 12.0173 25.3386 11.7126C25.2249 11.5703 25.1317 11.4354 25.0672 11.3362C25.0351 11.2868 25.0105 11.247 24.9945 11.2205C24.9865 11.2072 24.9807 11.1973 24.9772 11.1913L24.9734 11.1847L24.9732 11.1844C24.8176 10.9104 24.4731 10.8161 24.2033 10.974C23.9333 11.132 23.8403 11.4826 23.9957 11.7572L24.4846 11.4711C23.9957 11.7572 23.9956 11.7571 23.9957 11.7572L23.9959 11.7576L23.9971 11.7596L23.9994 11.7636L24.0068 11.7765C24.013 11.7872 24.0217 11.8019 24.0327 11.8201C24.0547 11.8566 24.0862 11.9075 24.1261 11.9689C24.2056 12.0911 24.3206 12.2578 24.4631 12.4361C24.7321 12.7726 25.1621 13.2316 25.6912 13.4399C27.2996 14.073 29.322 12.9159 29.1361 10.8693C29.0854 10.3109 28.7762 9.70567 28.5364 9.29801C28.4089 9.08114 28.2845 8.8934 28.1921 8.7599C28.1457 8.69292 28.107 8.63899 28.0794 8.6012C28.0656 8.5823 28.0546 8.56739 28.0467 8.55687L28.0373 8.5444L28.0346 8.54072L28.0333 8.5391C28.0333 8.53902 28.0331 8.53878 27.5872 8.89012L28.0331 8.53878Z" fill="#282828"/>
<path fill-rule="evenodd" clip-rule="evenodd" d="M14.4718 2.00745C14.4718 1.73802 14.4718 0 13.0525 0C11.6331 0 0.93335 3.39453 0.93335 14.9125C0.93335 26.4304 7.97098 30.9394 10.1 31.5456C12.229 32.1518 14.4718 32.5331 14.4718 30.1083V2.00745ZM3.5152 21.8724C3.39538 21.58 3.53137 21.2442 3.81895 21.1223C4.10653 21.0005 4.4368 21.1388 4.55662 21.4312C4.78367 21.9852 5.19624 22.8803 5.68777 23.745C6.19007 24.6287 6.73372 25.4059 7.20882 25.7923C7.45209 25.9902 7.49154 26.3511 7.29692 26.5985C7.1023 26.8459 6.74731 26.886 6.50403 26.6881C5.85092 26.1568 5.21936 25.2134 4.71098 24.319C4.19183 23.4057 3.75825 22.4654 3.5152 21.8724ZM7.35165 4.74397C7.20247 4.46588 6.85981 4.36341 6.5863 4.5151C5.19878 5.28461 4.60087 6.45732 4.47242 7.04503C4.40484 7.35426 4.5966 7.66064 4.90072 7.72935C5.20485 7.79807 5.50618 7.6031 5.57376 7.29388C5.63335 7.02126 6.03202 6.12916 7.12655 5.52214C7.40005 5.37046 7.50083 5.02206 7.35165 4.74397ZM6.85643 13.9087C6.85643 13.592 7.10898 13.3352 7.42053 13.3352C7.73207 13.3352 7.98463 13.592 7.98463 13.9087L7.98466 13.9532C7.98515 14.3899 7.98608 15.2191 7.61653 15.8924C7.41247 16.2642 7.09535 16.5931 6.62497 16.7875C6.16468 16.9777 5.60372 17.0202 4.93511 16.9129C4.32182 16.8144 3.94017 16.8698 3.71285 16.9706C3.50956 17.0608 3.38987 17.2037 3.32079 17.4198C3.24455 17.6583 3.22977 17.9961 3.29928 18.4323C3.36784 18.8625 3.51203 19.3493 3.71352 19.8615C3.82922 20.1556 3.68852 20.4894 3.39926 20.607C3.11 20.7247 2.78171 20.5816 2.666 20.2875C2.44441 19.7242 2.2713 19.1535 2.1856 18.6158C2.10088 18.0842 2.0949 17.5437 2.24783 17.0653C2.40792 16.5644 2.73775 16.1517 3.26163 15.9192C3.76146 15.6975 4.38462 15.6632 5.11107 15.7798C5.6453 15.8656 5.98543 15.8135 6.20019 15.7248C6.40486 15.6402 6.53674 15.5058 6.63134 15.3334C6.84613 14.9421 6.85643 14.3941 6.85643 13.9087ZM11.7923 15.0559C11.4808 15.0559 11.2282 15.3126 11.2282 15.6294V17.3669L11.2292 17.3838C11.2402 17.5744 11.1662 17.7867 10.8866 17.9347C10.5732 18.1006 9.94358 18.2111 8.82041 17.9392C7.96636 17.7325 7.23327 17.8337 6.65913 18.1933C6.09204 18.5485 5.7512 19.1113 5.58929 19.6934C5.42805 20.2732 5.43328 20.9055 5.58637 21.4632C5.73789 22.0152 6.05374 22.5566 6.57218 22.8641C7.13044 23.1952 7.76204 23.2577 8.35242 23.2223C8.94129 23.1871 9.55222 23.0495 10.0943 22.9249L10.1501 22.9121C10.6913 22.7876 11.1529 22.6815 11.5466 22.655C11.9594 22.6273 12.1573 22.6994 12.2597 22.7937C12.4311 22.9517 12.5328 23.1764 12.587 23.4674C12.639 23.7468 12.6388 24.0338 12.6385 24.3179L12.6385 24.3762C12.6385 25.0159 12.4646 26.5245 10.847 27.2985C10.7902 27.3257 10.7399 27.3613 10.6969 27.4031L9.8608 26.6391L10.6967 27.4034C10.5266 27.5692 10.4709 27.833 10.5768 28.0617C10.7094 28.3483 11.0455 28.4713 11.3274 28.3364C11.4135 28.2952 11.4966 28.2525 11.5768 28.2082L12.4052 28.9657L12.3996 28.9706C12.3933 28.976 12.3825 28.9852 12.3675 28.9975C12.3374 29.0222 12.2909 29.0592 12.2299 29.1038C12.1073 29.1934 11.9305 29.3106 11.7163 29.4195C11.2782 29.6422 10.7424 29.8008 10.2107 29.6927C9.11995 29.4709 8.5597 28.4828 8.9262 27.6133C9.09008 27.2245 9.33352 26.9781 9.53457 26.8282C9.63552 26.7529 9.72472 26.7029 9.78518 26.6729C9.81525 26.658 9.83771 26.6484 9.85029 26.6432L9.85618 26.6408L9.8608 26.6391C10.1529 26.5367 10.31 26.2141 10.2121 25.9154C10.1136 25.6149 9.79412 25.4525 9.49856 25.5527L9.67694 26.0968C9.49856 25.5527 9.49832 25.5528 9.49808 25.5529L9.49758 25.553L9.49651 25.5534L9.49415 25.5542L9.48847 25.5562C9.48426 25.5577 9.47922 25.5595 9.4734 25.5617C9.46175 25.566 9.44691 25.5717 9.42922 25.579C9.39387 25.5934 9.34692 25.614 9.29106 25.6417C9.17964 25.6969 9.03086 25.7813 8.86739 25.9031C8.53958 26.1476 8.14841 26.5464 7.88922 27.1614C7.171 28.8653 8.37988 30.4902 9.98939 30.8175C10.8679 30.9962 11.6719 30.7246 12.2209 30.4455C12.5004 30.3034 12.7289 30.1518 12.8884 30.0353C12.9685 29.9767 13.0321 29.9264 13.077 29.8894C13.0994 29.871 13.1173 29.8558 13.1303 29.8446C13.1367 29.839 13.142 29.8344 13.146 29.8308L13.1511 29.8263L13.1537 29.824L13.154 29.8237C13.1541 29.8236 13.1543 29.8234 12.7795 29.3948L13.1543 29.8234C13.3871 29.613 13.4081 29.2505 13.2011 29.0137C12.9945 28.7774 12.6389 28.7557 12.406 28.9649L11.5775 28.2079C13.5626 27.1131 13.7667 25.1394 13.7667 24.3761C13.7667 24.3541 13.7667 24.3309 13.7668 24.3068C13.7674 24.0362 13.7684 23.6454 13.6955 23.254C13.6148 22.8202 13.4344 22.328 13.0173 21.9437C12.5702 21.5318 11.9821 21.4762 11.4723 21.5104C10.9871 21.543 10.4452 21.6678 9.9403 21.7842L9.84562 21.806C9.29113 21.9334 8.76835 22.0484 8.28614 22.0772C7.80543 22.106 7.42856 22.044 7.14065 21.8733C6.95189 21.7613 6.77311 21.5194 6.67305 21.1549C6.57455 20.796 6.57122 20.3785 6.67492 20.0056C6.77795 19.6351 6.97555 19.3425 7.25085 19.17C7.51911 19.002 7.93237 18.9034 8.55909 19.0552C9.80515 19.3568 10.7503 19.3001 11.4076 18.9522C12.0919 18.59 12.3856 17.9511 12.3564 17.3349V15.6294C12.3564 15.3126 12.1039 15.0559 11.7923 15.0559ZM5.19086 10.7873C4.98654 11.0264 4.63024 11.0519 4.39506 10.8441C4.15988 10.6364 4.13486 10.2741 4.33919 10.035L5.43929 8.74752C5.81475 8.26291 6.44851 7.97647 7.19874 8.15936C7.91935 8.33504 8.66942 8.92248 9.41549 9.98111C9.79073 10.5136 10.1663 10.7147 10.4772 10.7668C10.7962 10.8202 11.1342 10.731 11.4509 10.5201C11.7697 10.3077 12.0365 9.9903 12.1936 9.65373C12.3533 9.3118 12.3743 9.00998 12.3041 8.79959C12.1783 8.42317 12.0452 8.33343 11.9788 8.30188C11.881 8.25541 11.736 8.24257 11.447 8.27111C11.3989 8.27587 11.3452 8.2826 11.2867 8.28992C10.7742 8.35412 9.89938 8.46371 9.24732 7.68453C8.66844 6.99281 8.85899 6.1703 9.1088 5.62126C9.36529 5.05755 9.76918 4.57458 9.95623 4.35568C10.1606 4.11655 10.5168 4.09111 10.752 4.29886C10.9872 4.50661 11.0122 4.86888 10.8079 5.108C10.625 5.32207 10.3163 5.69944 10.1327 6.1029C9.94249 6.52104 9.96545 6.77254 10.1066 6.94115C10.3488 7.23058 10.5903 7.20581 11.1754 7.14582C11.2268 7.14055 11.281 7.135 11.338 7.12937C11.6368 7.09985 12.0571 7.07291 12.4564 7.26263C12.8872 7.46727 13.183 7.864 13.3723 8.43068C13.5653 9.00852 13.4546 9.62783 13.2129 10.1456C12.9687 10.6687 12.5648 11.1495 12.0691 11.4796C11.5714 11.8112 10.9511 12.0087 10.2939 11.8986C9.6285 11.7873 9.00977 11.3748 8.49842 10.6493C7.82593 9.69503 7.2793 9.35863 6.93569 9.27486C6.62921 9.20015 6.43639 9.31105 6.32174 9.46232L6.31163 9.47567L5.19086 10.7873ZM11.9986 5.18107C11.8554 5.45667 11.9551 5.79928 12.2245 5.95074C12.4972 6.104 12.8404 6.00351 12.9911 5.72628L12.4975 5.44879C12.9911 5.72628 12.9913 5.72605 12.9914 5.72582L12.9917 5.72534L12.9922 5.72435L12.9933 5.72224L12.9958 5.71747C12.9976 5.71406 12.9997 5.71016 13.0019 5.70577C13.0063 5.69701 13.0115 5.68633 13.0174 5.67374C13.0292 5.64857 13.0436 5.61576 13.0593 5.57548C13.0907 5.49491 13.1274 5.3844 13.1591 5.24537C13.2229 4.96632 13.2657 4.57631 13.2083 4.08875C13.0992 3.16242 12.4207 2.36142 11.6708 1.91034C10.9282 1.4636 9.89672 1.23893 9.07213 1.82383C8.57528 2.17626 8.3504 2.72393 8.24484 3.10915C8.18966 3.31054 8.16036 3.49206 8.14467 3.62351C8.13676 3.68972 8.13215 3.74452 8.12948 3.78435C8.12814 3.8043 8.12728 3.8206 8.12673 3.8328C8.12645 3.8389 8.12625 3.84399 8.12611 3.84802L8.12594 3.85324L8.12588 3.85525L8.12585 3.85648C8.12585 3.85666 8.12584 3.85684 8.68976 3.87151L8.12584 3.85684C8.11787 4.1735 8.36389 4.43677 8.67533 4.44487C8.98601 4.45296 9.24443 4.20407 9.25361 3.88852L9.25375 3.88534C9.25393 3.88125 9.25432 3.87351 9.25506 3.86253C9.25654 3.84052 9.25938 3.80588 9.26465 3.76177C9.2753 3.67256 9.29525 3.54988 9.33166 3.41702C9.40928 3.13374 9.53697 2.89278 9.71764 2.76463C10.0223 2.54855 10.5356 2.56024 11.0964 2.8976C11.6499 3.23063 12.0335 3.76148 12.0881 4.22513C12.1289 4.57157 12.0963 4.82749 12.0602 4.98586C12.042 5.06554 12.0226 5.12161 12.0104 5.15295C12.0044 5.16837 12.0001 5.17779 11.9986 5.18107ZM13.4846 15.3426L14.0486 15.3565C14.041 15.6732 13.7824 15.9237 13.471 15.916C13.1608 15.9084 12.9153 15.6477 12.9206 15.3328C12.9206 15.3312 12.9206 15.3267 12.9204 15.3197C12.9201 15.3058 12.9191 15.2818 12.9165 15.25C12.9112 15.1856 12.8994 15.0921 12.8735 14.984C12.8208 14.7636 12.7172 14.5132 12.5217 14.3143C11.8711 13.6528 10.8307 13.6846 10.355 14.4906C10.2451 14.6769 10.2224 14.9771 10.2703 15.3161C10.2924 15.4723 10.3259 15.6119 10.3541 15.7124C10.368 15.7622 10.3803 15.8012 10.3887 15.8265C10.3928 15.8391 10.396 15.8482 10.3978 15.8534L10.399 15.8569L9.89954 16.0487C10.399 15.8569 10.3991 15.857 10.3991 15.8571L10.3995 15.8582C10.5087 16.1542 10.3617 16.4843 10.0707 16.5961C9.77927 16.7081 9.45375 16.5586 9.34363 16.2623L9.87133 16.0596C9.34363 16.2623 9.34358 16.2621 9.34352 16.262L9.34341 16.2617L9.34314 16.2609L9.34248 16.2592L9.34073 16.2544L9.33552 16.2397C9.33133 16.2278 9.32576 16.2117 9.31913 16.1916C9.30589 16.1515 9.2883 16.0955 9.26905 16.0268C9.23082 15.8903 9.18462 15.6989 9.15357 15.4792C9.09522 15.0662 9.07255 14.4343 9.38762 13.9004C10.3288 12.3055 12.2777 12.444 13.3194 13.5032C13.708 13.8982 13.8865 14.3648 13.9698 14.7128C14.0119 14.889 14.0316 15.0425 14.0408 15.1543C14.0454 15.2104 14.0474 15.2568 14.0483 15.2911C14.0487 15.3082 14.0488 15.3225 14.0488 15.3334C14.0488 15.3389 14.0488 15.3436 14.0487 15.3475L14.0487 15.3527L14.0486 15.3548L14.0486 15.3557L14.0486 15.3561C14.0486 15.3563 14.0486 15.3565 13.4846 15.3426ZM3.16695 8.53878C3.3578 8.2884 3.71213 8.24273 3.95838 8.43678C4.20459 8.63079 4.24953 8.99098 4.05879 9.24135L4.05773 9.24275L4.05181 9.25064C4.04629 9.25804 4.03769 9.26963 4.02643 9.28505C4.0039 9.3159 3.97084 9.36191 3.93059 9.42006C3.84976 9.53685 3.74158 9.70026 3.63185 9.8868C3.39705 10.286 3.21262 10.6967 3.18737 10.9747C3.09119 12.0338 4.14184 12.7479 5.10149 12.3701C5.34279 12.2752 5.61786 12.0173 5.86143 11.7126C5.97518 11.5703 6.06832 11.4354 6.13286 11.3362C6.16495 11.2868 6.18949 11.247 6.2055 11.2205C6.21349 11.2072 6.21932 11.1973 6.22286 11.1913L6.22666 11.1847L6.22686 11.1844C6.38243 10.9104 6.72694 10.8161 6.99674 10.974C7.26677 11.132 7.35972 11.4826 7.20434 11.7572L6.7154 11.4711C7.20434 11.7572 7.2044 11.7571 7.20434 11.7572L7.20409 11.7576L7.20297 11.7596L7.20065 11.7636L7.19319 11.7765C7.18698 11.7872 7.17831 11.8019 7.1673 11.8201C7.14531 11.8566 7.11384 11.9075 7.07391 11.9689C6.9944 12.0911 6.87943 12.2578 6.73691 12.4361C6.46795 12.7726 6.03789 13.2316 5.5088 13.4399C3.90046 14.073 1.87808 12.9159 2.06394 10.8693C2.11465 10.3109 2.42381 9.70567 2.6636 9.29801C2.79117 9.08114 2.91554 8.8934 3.00794 8.7599C3.0543 8.69292 3.09303 8.63899 3.12062 8.6012C3.13443 8.5823 3.14548 8.56739 3.15334 8.55687L3.16269 8.5444L3.16548 8.54072L3.16671 8.5391L3.16695 8.53878C3.16701 8.5387 3.16695 8.53878 3.61283 8.89012L3.16695 8.53878Z" fill="#282828"/>
</svg>
