<svg width="16" height="12" viewBox="0 0 16 12" fill="currentColor" xmlns="http://www.w3.org/2000/svg">
<mask id="path-1-inside-1_2_208" fill="white">
<path d="M0 8H4V12H0V8Z"/>
<path d="M6 4H10V12H6V4Z"/>
<path d="M12 0H16V12H12V0Z"/>
</mask>
<path d="M0 8V7H-1V8H0ZM4 8H5V7H4V8ZM4 12V13H5V12H4ZM0 12H-1V13H0V12ZM6 4V3H5V4H6ZM10 4H11V3H10V4ZM10 12V13H11V12H10ZM6 12H5V13H6V12ZM12 0V-1H11V0H12ZM16 0H17V-1H16V0ZM16 12V13H17V12H16ZM12 12H11V13H12V12ZM0 9H4V7H0V9ZM3 8V12H5V8H3ZM4 11H0V13H4V11ZM1 12V8H-1V12H1ZM6 5H10V3H6V5ZM9 4V12H11V4H9ZM10 11H6V13H10V11ZM7 12V4H5V12H7ZM12 1H16V-1H12V1ZM15 0V12H17V0H15ZM16 11H12V13H16V11ZM13 12V0H11V12H13Z" fill="currentColor" mask="url(#path-1-inside-1_2_208)"/>
</svg>
