<svg width="12" height="10" viewBox="0 0 12 10" fill="none" xmlns="http://www.w3.org/2000/svg">
<mask id="path-1-inside-1_2168_3193" fill="white">
<path d="M0 6.5H3V9.5H0V6.5Z"/>
<path d="M4.5 3.5H7.5V9.5H4.5V3.5Z"/>
<path d="M9 0.5H12V9.5H9V0.5Z"/>
</mask>
<path d="M0 6.5H3V9.5H0V6.5Z" fill="#282828"/>
<path d="M4.5 3.5H7.5V9.5H4.5V3.5Z" fill="#282828"/>
<path d="M0 6.5V5.75H-0.75V6.5H0ZM3 6.5H3.75V5.75H3V6.5ZM3 9.5V10.25H3.75V9.5H3ZM0 9.5H-0.75V10.25H0V9.5ZM4.5 3.5V2.75H3.75V3.5H4.5ZM7.5 3.5H8.25V2.75H7.5V3.5ZM7.5 9.5V10.25H8.25V9.5H7.5ZM4.5 9.5H3.75V10.25H4.5V9.5ZM9 0.5V-0.25H8.25V0.5H9ZM12 0.5H12.75V-0.25H12V0.5ZM12 9.5V10.25H12.75V9.5H12ZM9 9.5H8.25V10.25H9V9.5ZM0 7.25H3V5.75H0V7.25ZM2.25 6.5V9.5H3.75V6.5H2.25ZM3 8.75H0V10.25H3V8.75ZM0.75 9.5V6.5H-0.75V9.5H0.75ZM4.5 4.25H7.5V2.75H4.5V4.25ZM6.75 3.5V9.5H8.25V3.5H6.75ZM7.5 8.75H4.5V10.25H7.5V8.75ZM5.25 9.5V3.5H3.75V9.5H5.25ZM9 1.25H12V-0.25H9V1.25ZM11.25 0.5V9.5H12.75V0.5H11.25ZM12 8.75H9V10.25H12V8.75ZM9.75 9.5V0.5H8.25V9.5H9.75Z" fill="#282828" mask="url(#path-1-inside-1_2168_3193)"/>
</svg>