<svg width="18" height="16" viewBox="0 0 18 16" fill="currentColor" xmlns="http://www.w3.org/2000/svg">
<path d="M8 16C7.71666 16 7.47917 15.9042 7.2875 15.7125C7.09583 15.5208 7 15.2833 7 15V9L1.025 1.375C0.791665 1.09167 0.758331 0.791667 0.924998 0.475C1.09166 0.158333 1.35 0 1.7 0H16.3C16.65 0 16.9083 0.158333 17.075 0.475C17.2417 0.791667 17.2083 1.09167 16.975 1.375L11 9V15C11 15.2833 10.9042 15.5208 10.7125 15.7125C10.5208 15.9042 10.2833 16 10 16H8ZM9 9.1L15 1.5H3L9 9.1Z" fill="currentColor"/>
</svg>
