<svg width="26" height="26" viewBox="0 0 26 26" fill="currentColor" xmlns="http://www.w3.org/2000/svg">
<path d="M10.0667 18.1334L18.1334 13L10.0667 7.86671V18.1334ZM13 25.6667C11.2667 25.6667 9.62782 25.3334 8.08337 24.6667C6.53893 24 5.19448 23.0945 4.05004 21.95C2.9056 20.8056 2.00004 19.4612 1.33337 17.9167C0.666707 16.3723 0.333374 14.7334 0.333374 13C0.333374 11.2667 0.666707 9.62782 1.33337 8.08337C2.00004 6.53893 2.9056 5.19448 4.05004 4.05004C5.19448 2.9056 6.53893 2.00004 8.08337 1.33337C9.62782 0.666707 11.2667 0.333374 13 0.333374C14.7334 0.333374 16.3723 0.666707 17.9167 1.33337C19.4612 2.00004 20.8056 2.9056 21.95 4.05004C23.0945 5.19448 24 6.53893 24.6667 8.08337C25.3334 9.62782 25.6667 11.2667 25.6667 13C25.6667 14.7334 25.3334 16.3723 24.6667 17.9167C24 19.4612 23.0945 20.8056 21.95 21.95C20.8056 23.0945 19.4612 24 17.9167 24.6667C16.3723 25.3334 14.7334 25.6667 13 25.6667ZM13 24.1667C16.0667 24.1667 18.6945 23.0723 20.8834 20.8834C23.0723 18.6945 24.1667 16.0667 24.1667 13C24.1667 9.93337 23.0723 7.3056 20.8834 5.11671C18.6945 2.92782 16.0667 1.83337 13 1.83337C9.93337 1.83337 7.3056 2.92782 5.11671 5.11671C2.92782 7.3056 1.83337 9.93337 1.83337 13C1.83337 16.0667 2.92782 18.6945 5.11671 20.8834C7.3056 23.0723 9.93337 24.1667 13 24.1667Z" fill="currentColor"/>
</svg>
